<?xml version="1.0" encoding="utf-8" ?>
<svg xmlns="http://www.w3.org/2000/svg" xmlns:xlink="http://www.w3.org/1999/xlink" width="120" height="60">
	<path fill="white" transform="scale(0.0585938 0.0585938)" d="M0 0L2046.25 0C2048.35 3.26686 2047.96 7.11467 2047.99 10.8472L2048.01 596.421L2048.01 728.006C2048 736.647 2049.46 765.482 2047.63 772.032C2047.34 773.082 2046.9 773.976 2046.31 774.882C2047.55 777.004 2047.84 778.777 2047.92 781.206C2048.59 800.805 2048.03 820.611 2048.04 840.228L2048.03 952.82C2048.03 963.757 2049.66 1013.42 2047.58 1021.09C2047.29 1022.14 2046.82 1023.08 2046.25 1024L0 1024L0 776.611L0 0Z"/>
	<path fill="#353D3D" transform="scale(0.0585938 0.0585938)" d="M1226.47 176.498C1228.18 176.439 1229.92 176.506 1231.62 176.662C1238.72 177.318 1242.75 182.019 1246.97 187.174L1247.89 186.978C1248.78 186.791 1249.65 186.585 1250.54 186.353C1269.26 181.439 1266.36 191.696 1278.8 195.712C1282.43 196.883 1287.43 193.336 1291.72 194.137C1297.54 195.225 1298.78 201.043 1303.4 203.131C1306.54 204.547 1311.19 203.06 1314.18 205.085C1317.15 207.098 1321.47 213.197 1321.92 216.808C1322.17 218.763 1322.06 218.905 1320.84 220.434C1313.7 222.723 1301.34 220.889 1293.75 220.861C1283.12 220.821 1199.56 222.892 1195.54 219.486C1191.05 204.459 1205.77 203.027 1210.15 196.227C1211.89 193.527 1212.43 188.588 1214.06 185.44C1216.71 180.347 1221.28 178.242 1226.47 176.498Z"/>
	<path fill="white" transform="scale(0.0585938 0.0585938)" d="M1224.46 182.496C1228.76 181.971 1231.86 181.736 1235.85 183.734C1240.01 185.816 1242.43 189.536 1243.92 193.807Q1246.73 192.864 1249.59 192.071C1271.77 186.079 1267.86 199.227 1276.41 204.112C1280.55 204.563 1281.95 201.707 1285.59 200.113C1296.49 195.347 1295.18 209.836 1299.68 210.769C1304.24 211.717 1308.6 208.756 1313.82 210.809C1315.15 212.669 1315.09 212.661 1314.8 214.937C1310.06 216.844 1302.86 215.788 1297.75 215.699C1282.67 215.379 1209.38 217.635 1200.97 214.766L1200.82 212.487C1205.4 202.574 1211.21 206.355 1215.98 200.446C1220.17 195.273 1214.31 191.036 1224.46 182.496Z"/>
	<path fill="#353D3D" transform="scale(0.0585938 0.0585938)" d="M1401.88 420.582C1402.48 417.624 1403.08 414.648 1403.84 411.727C1405.75 404.38 1410.97 397.415 1417.59 393.637C1422.96 390.576 1429.22 389.387 1435.24 391.086C1442.86 393.24 1448.38 399.478 1452.15 406.098C1458.97 404.483 1465.48 403.463 1472.52 404.008C1484.83 404.961 1493.48 411.041 1501.29 420.221C1509.03 418.552 1511.76 413.742 1521.35 416.141C1527.82 417.76 1530.49 423.855 1533.56 429.145C1536.29 430.953 1540.89 430.129 1544.09 430.071C1547.75 430.006 1551.82 430.458 1554.52 433.222C1556.13 434.859 1557.04 436.565 1557.01 438.905C1559.55 440.491 1560.85 442.957 1562.37 445.437C1562.46 448.032 1562.19 448.057 1560.51 450.087C1557.72 451.444 1555.18 451.052 1552.19 450.8C1541.45 452.316 1382.3 452.903 1381.07 452.391C1379.8 451.857 1379.06 450.642 1378.64 449.333C1377.33 445.246 1380.2 439.138 1382.09 435.649C1387.4 425.857 1391.7 423.705 1401.88 420.582Z"/>
	<path fill="white" transform="scale(0.0585938 0.0585938)" d="M1407.56 426.541C1411.99 418.78 1406.49 409.841 1415.27 401.862C1419.34 398.157 1423.76 395.805 1429.39 396.145C1434.76 396.468 1440.53 399.112 1444.03 403.238C1446.41 406.045 1448.29 410.078 1448.04 413.804C1452.68 412.645 1456.98 410.518 1461.78 409.802C1471.06 408.419 1482.69 410.281 1490.3 416.076C1494.5 419.279 1499.71 425.682 1500.41 431.003C1504.01 429.123 1505.22 425.332 1508.38 423.039C1511.01 421.137 1515.02 420.306 1518.2 420.874C1521.71 421.5 1524.55 423.782 1526.44 426.734C1529.2 431.042 1528.99 434.718 1527.99 439.55C1531.59 438.983 1534.73 437.185 1538.21 436.178C1541.46 435.234 1546.04 434.345 1549.08 436.35C1551.66 438.058 1553.3 440.877 1553.95 443.836L1552.68 445.853C1540.75 443.874 1519.3 445.796 1506.53 445.931C1465.21 446.369 1423.45 448.048 1382.16 446.774C1385.63 441.717 1387.65 435.34 1392.02 431.045C1396.33 426.821 1401.85 426.49 1407.56 426.541Z"/>
	<path fill="#353D3D" transform="scale(0.0585938 0.0585938)" d="M788.274 207.375C790.354 203.97 792.456 200.53 795.104 197.53C801.186 190.638 810.154 186.043 819.368 185.583Q820.127 185.538 820.888 185.532Q821.649 185.525 822.409 185.558Q823.169 185.59 823.926 185.661Q824.683 185.732 825.436 185.841Q826.189 185.95 826.935 186.097Q827.681 186.245 828.419 186.43Q829.157 186.615 829.884 186.837Q830.612 187.06 831.327 187.319Q832.042 187.578 832.743 187.873Q833.444 188.168 834.13 188.498Q834.815 188.828 835.482 189.193Q836.15 189.558 836.798 189.956Q837.446 190.354 838.073 190.784Q838.701 191.215 839.305 191.677Q839.909 192.138 840.49 192.63Q841.07 193.122 841.624 193.643C849.38 200.991 851.879 210.391 852.148 220.694C866.831 225.671 874.486 232.604 882.643 245.625Q889.169 243.133 895.786 240.897Q902.404 238.661 909.104 236.685Q915.804 234.709 922.575 232.995Q929.347 231.281 936.18 229.832Q943.014 228.383 949.898 227.201Q956.783 226.02 963.708 225.107Q970.633 224.194 977.589 223.552Q984.545 222.91 991.52 222.539C1040.63 219.721 1091.48 227.921 1136.6 247.625C1143.69 250.72 1153.2 254.11 1158.94 259.214C1175.55 258.973 1196.35 256.388 1212.14 261.641C1222.36 265.038 1226.89 272.495 1234.7 279.096C1276.64 314.544 1301.98 344.039 1326.99 392.904C1334.01 406.626 1359.29 463.887 1355.59 475.325C1378.38 475.209 1440.53 484.289 1460.77 494.126C1480.91 498.005 1500.72 504.082 1520.73 508.656C1542.39 513.606 1564.6 517.018 1586.52 520.634C1613.89 525.151 1641.45 528.405 1668.96 531.965C1735.3 540.551 1777 552.112 1816.67 610.668C1842.23 648.38 1854.92 693.99 1857.47 739.19C1858.01 748.772 1858.83 759.982 1857.14 769.439C1856.95 770.482 1856.47 771.407 1855.91 772.295Q1916.39 771.944 1976.84 773.715Q1993.92 774.032 2010.99 774.564C2016.72 774.764 2023.13 775.636 2028.8 775.134C2015.85 778.017 1979.08 776.807 1964.13 776.931L1830.73 777.34C1811.13 777.358 1791.26 776.518 1771.69 777.201C1764.29 776.77 1756.77 777.098 1749.35 777.178C1651.18 775.879 1552.73 777.084 1454.53 777.322L1385.35 777.141C1374.84 777.125 1361.95 775.781 1351.73 777.956C1351.48 783.764 1336.54 795.98 1332.19 799.971C1322.47 808.884 1293.98 834.958 1282.67 837.967C1282.24 839.081 1281.54 839.759 1280.61 840.508C1269.42 849.493 1254.2 856.812 1241.3 863.13C1158.35 903.756 1079.85 898.629 990.631 897.063C957.997 896.491 925.259 898.197 892.698 895.432C833.15 890.373 781.222 868.458 734.523 831.345C723.168 822.32 711.065 812.282 701.705 801.198C692.645 793.915 684.347 783.975 676.016 775.741C623.058 775.32 570.141 776.211 517.164 775.367C497.768 775.059 477.965 775.556 458.636 774.077C420.303 775.366 381.015 774.001 342.646 772.963C318.843 773.879 294.83 773.239 271 773.323L124.794 774.091Q89.618 774.394 54.4591 775.534C40.3051 776.024 24.9236 777.871 10.8438 776.529C26.9824 776.257 43.7086 773.56 59.9361 772.686Q120.048 769.714 180.23 769.069C179.815 713.097 189.826 656.367 223.031 609.925C258.522 560.286 364.16 487.823 415.834 451.243C434.67 437.909 454.237 421.821 474.57 410.969C485.342 405.22 497.761 401.307 509.791 399.339C521.505 397.424 533.51 397.602 545.263 399.087C579.098 403.362 601.243 419.68 628.191 438.786L681.39 476.728C689.832 393.045 744.15 321.615 805.279 267.727C786.421 267.714 657.085 269.396 651.234 267.203C650.684 266.996 649.626 265.809 649.129 265.378C648.162 262.813 648.343 260.765 649.235 258.21C651.802 250.856 657.535 243.912 664.619 240.538C671.208 237.399 675.535 238.098 682.245 240.483C685.303 238.743 687.366 234.396 689.358 231.517C693.084 226.133 697.7 221.313 704.444 220.234C711.712 219.07 719.254 221.802 725.093 225.925C731.878 217.889 739.721 211.377 749.497 207.273C762.703 201.729 775.195 202.051 788.274 207.375Z"/>
	<path fill="white" transform="scale(0.0585938 0.0585938)" d="M582.693 503.808C574.382 499.786 568.422 497.906 559.039 498.976L558.07 498.129C559.405 495.359 560.839 492.98 563.93 491.859C567.589 490.533 571.963 492.241 575.189 493.961C581.285 497.211 585.816 501.821 590.338 506.936C591.71 509.139 592.844 511.208 593.81 513.63L593.174 513.767C589.854 510.126 586.638 506.806 582.693 503.808Z"/>
	<path fill="white" transform="scale(0.0585938 0.0585938)" d="M1358.35 737.496L1360.4 738.078C1363.62 741.032 1366.2 745.317 1367.9 749.335C1369.89 754.046 1371.27 757.688 1369.29 762.501C1365.79 763.308 1361.23 762.802 1357.59 762.829C1360.67 757.06 1359.3 743.968 1358.35 737.496Z"/>
	<path fill="white" transform="scale(0.0585938 0.0585938)" d="M1238.64 512.944C1246.89 512.944 1262.65 514.486 1270.29 512.63L1269.81 512.294C1273.07 511.825 1273.99 511.705 1277.14 513.043C1273 518.243 1257.74 521.42 1251.37 522.087C1249.05 522.33 1246.68 522.199 1244.36 522.035C1242.4 522.149 1241.95 522.179 1240.11 521.308L1238.46 516.152L1238.64 512.944Z"/>
	<path fill="white" transform="scale(0.0585938 0.0585938)" d="M1238.53 542.49L1241.51 543.515C1247.67 550.136 1256.38 558.214 1260.14 566.463L1258.61 568.503C1257.95 568.889 1257.15 569.178 1256.41 569.351C1249.75 570.892 1243.62 562.657 1238.69 559.384L1238.08 558.983C1240.44 554.238 1239.74 547.476 1238.53 542.49Z"/>
	<path fill="#353D3D" transform="scale(0.0585938 0.0585938)" d="M1347.83 732.147C1349.88 732.481 1352.27 733.134 1354.33 732.859C1358.22 737.991 1357.82 752.482 1356.61 758.987C1356.43 759.928 1356.13 760.592 1355.73 761.455C1355.11 764.399 1352.09 769.311 1349.64 770.997C1349.11 771.357 1348.57 771.649 1347.99 771.908C1349.69 764.691 1349.98 738.925 1347.83 732.147Z"/>
	<path fill="white" transform="scale(0.0585938 0.0585938)" d="M609.163 529.634C619.826 530.516 631.615 532.475 639.017 540.987C640.344 542.513 641.209 544.133 641.991 545.989C642.386 548.979 642.311 550.501 641.148 553.338C638.719 555.265 638.139 555.189 635.175 555.276C632.377 554.191 631.022 552.664 629.133 550.464L627.802 549.454C621.695 542.657 614.487 537.327 607.989 530.975L609.163 529.634Z"/>
	<path fill="white" transform="scale(0.0585938 0.0585938)" d="M581.071 519.152C586.558 520.543 594.07 522.061 598.467 525.741L599.23 527.8C598.382 528.821 597.616 529.835 596.504 530.585C585.91 539.027 577.67 548.401 569.151 558.863C575.19 541.905 583.78 534.166 598.644 525.088C585.994 525.059 573.795 525.145 563.172 533.125C560.668 535.97 558.187 538.802 555.47 541.445C554.581 539.132 555.864 536.262 556.554 533.88C557.693 531.883 558.863 529.902 560.354 528.142C566.147 521.305 572.533 519.869 581.071 519.152Z"/>
	<path fill="white" transform="scale(0.0585938 0.0585938)" d="M1239.71 528.496C1245.69 531.081 1278.13 561.093 1281.26 566.319L1279.73 568.503C1278.32 568.879 1277.23 568.877 1275.79 568.659C1264.1 566.88 1247.49 547.221 1240.89 537.848C1238.58 534.559 1239.04 532.212 1239.71 528.496Z"/>
	<path fill="white" transform="scale(0.0585938 0.0585938)" d="M790.034 532.826C792.588 535.57 791.104 550.231 790.997 554.55Q786.669 557.954 782.751 561.823Q778.833 565.691 775.375 569.976L757.238 569.978L756.631 569.404C757.414 563.834 784.296 538.412 790.034 532.826Z"/>
	<path fill="white" transform="scale(0.0585938 0.0585938)" d="M1290.01 523.488C1290.93 523.321 1291.88 523.167 1292.81 523.243C1300.7 523.89 1345.99 559.912 1351.92 567.478L1348.27 568.85C1345.88 569.438 1343.44 569.504 1341.1 568.68C1337.43 567.391 1289.77 527.83 1288.5 525.1L1290.01 523.488Z"/>
	<path fill="white" transform="scale(0.0585938 0.0585938)" d="M1255.81 528.496C1256.97 528.344 1258.21 528.196 1259.36 528.46C1267.31 530.291 1302.58 560.481 1307.16 568.164C1305.4 569.796 1303.35 569.627 1301.02 569.962C1286.93 571.112 1264.17 541.186 1251.14 533.762C1253.27 532.184 1254.87 531.107 1255.81 528.496Z"/>
	<path fill="white" transform="scale(0.0585938 0.0585938)" d="M719.705 508.194L727.984 512.178C708.671 525.093 690.71 540.729 672.884 555.624C668.14 559.588 663.627 564.714 658.719 568.294C656.821 569.678 655.535 569.054 653.493 568.539C655.005 565.036 660.533 562.218 662.861 558.8C664.182 556.861 663.917 556.692 663.484 554.496C659.227 557.61 648.067 567.815 644.361 569.204C644.389 568.931 644.4 568.656 644.445 568.386C644.749 566.574 646.435 564.654 647.771 563.476C655.306 556.832 664.287 550.989 672.25 544.79C687.981 532.543 703.515 519.821 719.705 508.194Z"/>
	<path fill="white" transform="scale(0.0585938 0.0585938)" d="M1267.36 521.497C1267.55 521.47 1267.75 521.44 1267.94 521.417C1274.78 520.624 1284.86 528.976 1290.13 533.038C1297.17 538.464 1323.18 557.692 1323.87 566.103C1324.01 567.88 1323.75 568.086 1322.58 569.365C1319.52 570.28 1317.07 569.056 1314.22 567.989C1312.24 565.135 1307.66 562.302 1304.96 559.958C1290.37 547.319 1276.65 533.284 1259.26 524.434C1262.11 523.714 1264.67 522.655 1267.36 521.497Z"/>
	<path fill="white" transform="scale(0.0585938 0.0585938)" d="M732.388 513.89C736.548 514.874 740.809 516.748 744.868 518.154C733.765 525.092 686.883 567.089 681.339 568.977C680.493 569.265 679.165 569.251 678.25 569.366L663.419 569.556C684.357 549.797 708.906 530.532 732.388 513.89Z"/>
	<path fill="white" transform="scale(0.0585938 0.0585938)" d="M1347.83 732.147C1350.46 721.031 1348.77 706.849 1348.74 695.335C1348.7 682.215 1346.84 578.405 1349.55 574.15C1352.17 573.398 1352.8 573.137 1355.39 573.819C1357.23 578.245 1355.49 584.769 1356.45 589.72L1356.61 590.493L1356.33 682.25C1356.33 697.303 1357.55 713.4 1356.22 728.36C1356.07 730.156 1355.44 731.426 1354.33 732.859C1352.27 733.134 1349.88 732.481 1347.83 732.147Z"/>
	<path fill="#353D3D" transform="scale(0.0585938 0.0585938)" d="M1253.23 597.9L1327.3 597.944C1327.72 598.571 1328.06 599.188 1328.36 599.889C1330.33 604.529 1329.83 619.019 1327.85 623.637C1327.76 623.312 1327.66 622.989 1327.58 622.663C1326.27 617.5 1330.06 612.125 1324.19 608.44C1314.88 602.601 1271.71 605.578 1258.71 605.51C1261.75 610.747 1261.06 620.452 1261.24 626.52C1261.9 647.898 1260.53 669.745 1260.51 691.195C1260.48 715.256 1261.81 740.087 1260.39 764.065C1269.53 764.363 1321.87 762.615 1325.9 765.222C1327.07 767.798 1327.23 768.096 1326.72 770.86C1323.63 772.867 1261.74 772.4 1254.69 771.073C1256.77 754.116 1255.02 722.022 1255 703.542C1254.97 670.437 1256.61 636.505 1254.89 603.491C1254.77 601.317 1254.36 599.758 1253.23 597.9Z"/>
	<path fill="white" transform="scale(0.0585938 0.0585938)" d="M749.008 519.926L768.134 524.761C763.068 528.902 749.985 537.408 748.016 543.238C747.748 544.03 748.205 544.448 748.546 545.166C753.18 544.326 768.452 529.192 773.33 525.486C779.761 526 786.298 525.931 792.751 526.048C776.728 538.024 763.014 554.864 749.949 569.969L734.49 569.979C739.224 565.445 743.312 561.515 746.404 555.631L745.183 555.071L746.336 554.831L745.513 556.459C744.835 556.384 743.753 556.124 743.103 556.24C741.79 556.475 738.433 560.219 737.27 561.294C734.483 564.013 731.886 566.983 729.226 569.829L716.149 569.901C722.61 563.43 738.138 552.302 741.723 544.916L740.656 543.599C735.71 543.81 715.42 565.07 710.862 569.658L688.082 569.647C707.367 552.327 727.854 534.9 749.008 519.926Z"/>
	<path fill="white" transform="scale(0.0585938 0.0585938)" d="M653.163 637.334C654.788 629.765 654.103 620.3 654.632 612.423C656.73 622.397 658.331 649.069 665.066 655.313C666.638 656.771 667.5 656.523 669.523 656.542C670.694 655.989 671.891 655.369 672.766 654.39C678.371 648.113 675.824 637.503 675.32 629.775L676.313 629.097C678.489 631.386 679.795 633.049 680.808 636.074C678.893 649.916 680.034 665.023 680.055 679.036L680.218 756.931Q671.606 758.054 663.049 759.543C666.974 755.714 673.847 749.628 675.101 744.215C675.684 741.701 675.433 741.084 674.096 738.972C673.137 738.519 672.213 738.19 671.155 738.036C662.099 736.716 651.201 746.233 644.7 751.58C652.766 714.474 654.119 675.215 653.163 637.334Z"/>
	<path fill="white" transform="scale(0.0585938 0.0585938)" d="M1347.23 481.498C1350.21 481.042 1351.82 480.367 1354.61 481.621C1358.91 492.655 1364.88 540.03 1360.5 550.198C1360.25 549.675 1359.97 549.107 1359.61 548.649C1354.18 541.64 1311.96 515.325 1303.33 513.565C1312.1 519.052 1366.41 556.905 1368.93 562.502C1370.45 563.422 1371.18 564.465 1372.18 565.917L1371.57 567.78C1370.71 568.417 1369.79 569.066 1368.77 569.431C1366.32 570.312 1363.88 569.722 1361.65 568.58C1351.89 563.575 1342.98 554.91 1334.38 548.032C1322.65 538.654 1310.33 529.574 1297.32 522.059C1296.78 520.428 1296.2 519.039 1295.35 517.545C1290.32 519.09 1284.04 521.401 1278.78 520.799C1276.68 520.557 1276.63 520.283 1275.39 518.734C1275.67 518.355 1325.95 490.521 1330.79 488.116C1336.14 485.457 1341.56 483.359 1347.23 481.498Z"/>
	<path fill="white" transform="scale(0.0585938 0.0585938)" d="M943.806 231.341C984.657 222.986 1029.26 222.738 1070.25 230.226C1076.08 231.29 1085.7 232.498 1090.72 235.286C1098.24 236.451 1126.47 243.879 1130.52 248.989C1132.17 249.452 1134.64 249.788 1135.78 251.122C1140.1 252.311 1148.53 254.974 1151.18 258.782C1151.26 258.897 1151.31 259.028 1151.38 259.15C1130.28 259.102 1108.63 259.953 1087.59 258.864C1063.5 259.633 1039.25 259.047 1015.15 259.035L887.19 259.116C886.244 255.887 884.084 250.912 885.074 247.707C904.937 242.104 923.178 234.832 943.806 231.341Z"/>
	<path fill="white" transform="scale(0.0585938 0.0585938)" d="M1320.71 573.777C1333.44 573.979 1327.13 565.58 1338.71 574.093L1343.61 574.187C1345.82 577.098 1346.03 580.325 1346.14 583.959C1346.4 592.933 1345.25 601.935 1345.24 610.928L1345.57 698.953L1345.84 747.315C1345.88 753.911 1346.77 762.03 1345.71 768.456C1345.48 769.857 1344.86 771.024 1343.84 772.006L1330.37 772.014C1331.3 770.068 1331.69 768.381 1331.79 766.235C1332.54 749.385 1333.48 602.199 1331.45 596.834C1331.15 596.045 1330.8 595.362 1330.36 594.652L1250.07 594.729C1251.12 596.471 1251.63 597.98 1251.76 600.025C1253.67 629.806 1251.93 667.054 1251.93 697.66C1251.93 718.277 1253.81 750.608 1251.53 770.09C1247.94 772.214 1243.88 771.662 1240.11 773.973C1239.66 774.507 1239.2 775.027 1238.7 775.516C1233.28 780.797 1223.08 779.128 1216.12 779.022C1216.99 778.712 1217.84 778.393 1218.68 778.018C1226.96 774.327 1234.8 764.624 1237.89 756.226C1239.4 752.128 1239.61 747.9 1239.82 743.577C1240.64 726.612 1241.37 586.895 1238.76 581.074C1239.7 578.915 1239.97 576.374 1240.4 574.063C1247.84 571.218 1257.62 574.29 1265.8 571.711C1265.94 571.667 1266.08 571.621 1266.22 571.576L1268.7 572.869C1273.5 573.169 1278.9 574.008 1283.61 572.914C1288.21 571.175 1293.18 573.64 1298.03 573.591C1303.24 573.538 1309.02 571.987 1314.02 572.225C1316.24 572.331 1318.6 573.095 1320.71 573.777Z"/>
	<path fill="#353D3D" transform="scale(0.0585938 0.0585938)" d="M1320.71 573.777C1333.44 573.979 1327.13 565.58 1338.71 574.093C1338.73 574.533 1338.78 574.811 1338.71 575.232C1338.28 577.874 1336.14 579.91 1334.11 581.423C1332.05 582.128 1330.56 582.271 1328.46 581.785C1323.9 580.729 1322.06 578.18 1319.75 574.369L1316.66 574.41C1314.36 577.121 1312.38 580.837 1308.51 581.119C1302.39 581.566 1296.15 578.272 1290.65 575.888C1288.76 578.657 1287.14 581.026 1283.62 581.759C1276.51 583.234 1272.78 573.363 1265.92 577.129C1265.05 579.208 1264.7 579.727 1262.46 580.654C1257.37 582.766 1248.34 579.093 1243.5 577.191C1242.9 576.446 1242.49 575.821 1242.1 574.938C1242.12 576.747 1240.62 579.4 1239.27 580.667C1239.11 580.815 1238.93 580.938 1238.76 581.074C1239.7 578.915 1239.97 576.374 1240.4 574.063C1247.84 571.218 1257.62 574.29 1265.8 571.711C1265.94 571.667 1266.08 571.621 1266.22 571.576L1268.7 572.869C1273.5 573.169 1278.9 574.008 1283.61 572.914C1288.21 571.175 1293.18 573.64 1298.03 573.591C1303.24 573.538 1309.02 571.987 1314.02 572.225C1316.24 572.331 1318.6 573.095 1320.71 573.777Z"/>
	<path fill="white" transform="scale(0.0585938 0.0585938)" d="M819.948 191.295L820.869 191.349C827.897 191.796 834.748 194.235 839.438 199.718C846.123 207.532 846.404 216.312 845.65 225.967C850.149 226.572 854.378 227.282 858.537 229.208C871.091 235.021 877.237 246.737 881.644 259.125C865.295 259.048 848.635 258.344 832.319 259.186C822.596 259.688 813.013 261.572 803.251 261.795C769.319 262.568 735.2 261.804 701.25 261.731L654.498 261.515C656.733 255.864 659.751 249.313 665.159 246.026C673.093 241.203 677.367 248.405 684.463 249.982C689.976 246.489 692.862 234.733 698.45 229.56C701.273 226.947 704.772 224.957 708.741 225.215C716.173 225.698 721.905 231.145 726.494 236.402C733.457 223.799 742.04 215.117 756.316 211.028C769.07 207.375 779.858 209.306 791.165 215.713C793.119 211.596 795.149 207.473 797.765 203.727C803.407 195.647 810.553 192.888 819.948 191.295Z"/>
	<path fill="#353D3D" transform="scale(0.0585938 0.0585938)" d="M1258.71 605.51C1271.71 605.578 1314.88 602.601 1324.19 608.44C1330.06 612.125 1326.27 617.5 1327.58 622.663C1327.66 622.989 1327.76 623.312 1327.85 623.637C1330.88 631.564 1329.63 752.981 1328.27 768.409L1326.72 770.86C1327.23 768.096 1327.07 767.798 1325.9 765.222C1321.87 762.615 1269.53 764.363 1260.39 764.065C1261.81 740.087 1260.48 715.256 1260.51 691.195C1260.53 669.745 1261.9 647.898 1261.24 626.52C1261.06 620.452 1261.75 610.747 1258.71 605.51Z"/>
	<path fill="white" transform="scale(0.0585938 0.0585938)" d="M1264.23 609.5L1318.55 609.478C1319.01 610.251 1319.4 611.059 1319.62 611.941C1320.45 615.295 1320.88 753.305 1319.71 756.989C1319.47 757.76 1318.65 758.787 1318.22 759.512C1307.92 761.688 1275.73 759.914 1262.94 759.834C1265.83 755.512 1264.25 626.104 1264.23 609.5Z"/>
	<path fill="#353D3D" transform="scale(0.0585938 0.0585938)" d="M1266.72 668.497C1269.85 667.907 1272.03 667.363 1274.8 669.03C1276.16 671.497 1277.18 673.824 1277.13 676.694C1277.06 680.511 1276.9 686.029 1274.05 688.773C1273.76 688.847 1273.47 688.947 1273.17 688.993C1270.69 689.373 1269.57 689.282 1267.68 687.695C1265.71 682.281 1266.97 674.409 1266.72 668.497Z"/>
	<path fill="white" transform="scale(0.0585938 0.0585938)" d="M1233.91 283.669C1234.85 284.095 1235.77 284.548 1236.67 285.071C1241.9 288.129 1261.58 303.896 1262.89 309.043C1266.57 310.851 1275.59 319.205 1276.69 323.054C1276.78 323.375 1276.76 323.851 1276.77 324.159C1279.96 326.053 1284.57 330.206 1285.63 333.889C1285.81 334.528 1285.77 334.576 1285.77 335.146C1289.37 337.422 1297.19 346.357 1297.94 350.563C1298.01 350.954 1297.95 351.506 1297.93 351.875C1300.31 353.456 1302.79 355.804 1303.55 358.677C1303.75 359.41 1303.8 360.172 1303.82 360.926C1309.17 364.313 1313.13 373.225 1315.78 378.874L1315.68 380.932C1318.71 383.334 1321.41 386.969 1322.02 390.886C1322.13 391.583 1322.07 392.15 1321.88 392.823C1326.48 395.824 1329.6 404.597 1331.3 409.65L1330.93 411.649C1332.8 413.396 1334.79 415.308 1335.11 418.008C1335.23 418.986 1335.03 420.03 1334.83 420.986C1338.54 423.773 1342.56 433.899 1342.89 438.484C1342.95 439.427 1342.8 440.227 1342.49 441.108C1344.33 443.334 1345.67 444.676 1345.22 447.866C1345.16 448.257 1345.04 448.628 1344.93 449.006L1346.02 452.008C1349.24 455.216 1351.98 464.388 1351.83 468.882C1351.8 469.786 1351.59 470.331 1351.26 471.163L1352.99 474.147C1351.33 477.386 1345.7 478.768 1342.27 479.868C1338.51 481.07 1334.75 482.257 1330.91 483.124C1328.4 486.731 1302.63 500.617 1297.81 502.008C1295.24 506.019 1283.03 511.883 1278.24 512.862C1277.87 512.936 1277.51 512.992 1277.14 513.043C1273.99 511.705 1273.07 511.825 1269.81 512.294L1270.29 512.63C1262.65 514.486 1246.89 512.944 1238.64 512.944C1240.19 508.815 1239.77 505.002 1238.59 500.86C1240.47 495.862 1240.23 487.845 1238.11 482.999C1238.2 482.83 1238.29 482.662 1238.36 482.491C1240.29 478.348 1239.66 475.083 1238.11 470.974C1240.63 466.135 1240.03 458.146 1238.57 453.064L1238.7 450.08C1239.79 446.449 1239.63 444.38 1238.23 440.886C1238.51 440.395 1238.66 440.157 1238.85 439.658C1240.63 434.958 1240.27 427.537 1238.23 423.016C1238.46 422.519 1238.68 422.019 1238.89 421.512C1240.43 417.763 1239.76 414.589 1238.24 410.987C1238.54 410.417 1238.65 410.268 1238.86 409.704C1240.62 405.029 1240.19 398.47 1238.24 393.952C1238.31 393.788 1238.39 393.625 1238.45 393.459C1240.33 388.837 1240.11 385.537 1238.25 380.965C1238.57 380.373 1238.67 380.245 1238.9 379.666C1240.71 375.183 1240.15 369.287 1238.34 364.918C1240.54 360.939 1239.81 356.456 1239.24 352.16C1240.17 347.251 1239.98 341.662 1238.55 336.879C1239.57 333.761 1239.54 332.208 1238.46 329.113C1238.54 328.931 1238.65 328.756 1238.72 328.567C1240.35 324.289 1240.08 314.148 1238.54 309.871C1239.42 307.814 1239.5 305.941 1239.55 303.725C1239.7 296.656 1239 289.005 1233.91 283.669Z"/>
	<path fill="white" transform="scale(0.0585938 0.0585938)" d="M797.716 277.957C791.633 289.376 791.402 299.313 791.46 311.976L791.434 318.366L791.45 341.845L791.393 349.127L791.411 367.029C791.512 369.43 791.461 371.932 791.962 374.286L791.307 376.347L791.364 394.009L791.485 402.195L791.289 405.764L791.291 422.167L791.423 429.88L791.225 433.691L791.245 452.64L791.242 459.46L791.173 464.436L791.262 482.893L791.271 489.75L791.202 494.557L791.204 509.5L791.151 522.271C772.084 522.003 755.236 519.314 737.662 511.627C727.858 508.203 718.891 502.003 710.229 496.378L703.547 492.183L693.719 485.549L683.638 478.558C685.977 464.273 688.241 450.004 692.217 436.062C704.548 392.825 729.626 349.444 760.508 316.85L765.006 312.03C775.411 300.126 786.058 288.659 797.716 277.957Z"/>
	<path fill="white" transform="scale(0.0585938 0.0585938)" d="M684.435 574.53C719.898 573.749 755.487 574.363 790.965 574.37L790.862 690.568C790.832 707.174 788.671 734.944 792.12 750.416C793.834 758.106 798.355 765.371 803.936 770.858C806.112 772.997 808.606 774.887 811.024 776.742C798.442 778.192 784.646 777.09 771.922 777.034C742.873 776.908 713.733 776.255 684.694 776.941L684.807 759.011L684.638 658.543Q684.879 616.536 684.435 574.53Z"/>
	<path fill="#353D3D" transform="scale(0.0585938 0.0585938)" d="M703.055 677.136C703.938 676.955 706.372 676.759 706.848 676.084C709.449 672.393 708.201 614.693 707.601 607.071L707.222 606.565C706.669 605.815 706.155 605.047 705.628 604.279C705.475 604.057 705.311 603.843 705.164 603.618C703.643 601.298 703.927 598.658 704.016 596.005L704.986 594.517C713.953 593.128 770.053 592.965 775.506 595.651C776.936 602.531 771.714 608.228 771.598 614.983C771.501 620.694 771.144 673.636 772.182 675.463C773.743 678.209 775.86 676.606 776.23 680.749C776.371 684.311 776.964 688.639 774.827 691.679C765.279 692.305 707.695 693.647 703.038 690.485C700.992 686.122 701.695 681.596 703.055 677.136Z"/>
	<path fill="#353D3D" transform="scale(0.0585938 0.0585938)" d="M728.44 597.951C737.68 597.498 766.334 595.486 773.551 599.69L772.926 601.462C764.817 603.727 735.367 603.844 726.703 602.148C722.738 602.304 718.485 602.713 714.528 602.42C712.186 602.247 710.086 601.874 708.571 600.068C713.112 595.989 722.788 597.654 728.44 597.951Z"/>
	<path fill="#353D3D" transform="scale(0.0585938 0.0585938)" d="M714.015 645.189L737.442 645.171C737.432 655.072 738.23 665.72 736.802 675.505C733.426 676.471 729.86 676.234 726.381 676.227C722.567 675.873 718.672 676.289 714.857 676.534C711.984 668.276 713.945 654.15 714.015 645.189Z"/>
	<path fill="#353D3D" transform="scale(0.0585938 0.0585938)" d="M742.107 645.303L766.378 645.264L766.248 676.158L742.04 676.158L742.107 645.303Z"/>
	<path fill="#353D3D" transform="scale(0.0585938 0.0585938)" d="M714.06 606.195L737.723 606.216L737.672 640.695L714.005 640.742L714.06 606.195Z"/>
	<path fill="#353D3D" transform="scale(0.0585938 0.0585938)" d="M742.118 606.246L766.562 606.176L766.391 640.677L742.05 640.705L742.118 606.246Z"/>
	<path fill="white" transform="scale(0.0585938 0.0585938)" d="M811.024 776.742C817.63 779.703 823.676 782.364 831.041 782.732C864.171 784.391 898.069 782.902 931.289 782.887L1128.3 782.868L1269.24 782.86C1288.16 782.856 1311.4 784.773 1329.73 783.041L1341.05 783.672C1334.13 797.37 1294.25 827.31 1279.65 835.927C1270.34 844.784 1255.32 851.134 1243.88 857C1150.18 905.061 1050.89 892.319 949.726 892.663C842.458 893.028 780.952 874.34 703.535 797.453C697.099 790.791 690.406 784.245 684.694 776.941C713.733 776.255 742.873 776.908 771.922 777.034C784.646 777.09 798.442 778.192 811.024 776.742Z"/>
	<path fill="white" transform="scale(0.0585938 0.0585938)" d="M1198.69 838.498C1206.25 837.787 1214.47 836.925 1221.95 838.477C1224.81 839.069 1226.47 839.989 1228.09 842.347C1228.04 843.605 1227.92 844.53 1227.16 845.585C1225.39 848.045 1224.01 847.814 1221.24 848.299C1216.61 849.344 1209.95 849.396 1205.18 849.09C1201.5 848.854 1199.18 847.995 1196.76 845.254C1196.6 842.007 1197.15 841.229 1198.69 838.498Z"/>
	<path fill="white" transform="scale(0.0585938 0.0585938)" d="M834.858 818.611C841.876 818.198 851.411 816.271 857.692 820.141C858.852 822.216 859.48 823.509 858.681 825.997C857.891 828.455 856.099 828.933 853.976 829.869C848.139 830.098 841.729 830.851 835.936 830.37C833.296 830.151 830.923 829.526 829.166 827.416C828.48 824.968 828.822 823.682 829.744 821.349C831.761 819.493 832.193 819.178 834.858 818.611Z"/>
	<path fill="white" transform="scale(0.0585938 0.0585938)" d="M791.227 826.37C796.097 826.181 801.005 826.005 805.879 826.059C809.555 826.099 810.8 826.842 813.32 829.429C814.246 831.97 814.204 833.28 813.404 835.854C811.449 837.944 810.973 838.313 808.251 839.156C801.628 839.563 792.104 841.599 786.634 837.023C785.694 834.654 785.04 833.066 785.916 830.462C786.787 827.872 788.996 827.356 791.227 826.37Z"/>
	<path fill="white" transform="scale(0.0585938 0.0585938)" d="M1157.49 796.498C1163.6 796.279 1170.26 795.602 1176.32 796.492C1179.39 796.944 1182.32 797.719 1184.23 800.336C1184.63 803.018 1184.39 803.699 1183.45 806.275C1181.02 808.155 1177.7 807.746 1174.75 807.81C1168.56 808.062 1162.3 808.563 1156.28 806.827C1153.45 806.011 1151.44 805.176 1149.99 802.462C1151.59 799.134 1154.31 798.098 1157.49 796.498Z"/>
	<path fill="white" transform="scale(0.0585938 0.0585938)" d="M818.343 796.122C825.716 795.832 841.553 793.896 847.7 798.702C849.066 799.77 848.827 800.272 848.993 801.9C847.593 804.046 846.057 805.341 844.063 806.872C836.935 807.266 824.648 808.921 818.025 806.483C815.604 805.591 815.423 805.006 814.392 802.815C814.935 799.672 816.203 798.342 818.343 796.122Z"/>
	<path fill="white" transform="scale(0.0585938 0.0585938)" d="M879.233 792.281C887.96 791.973 904.662 789.687 912.228 793.548C914.124 794.515 914.069 794.904 914.699 796.799C913.831 799.182 912.563 800.243 910.683 801.836C901.977 802.345 889.24 804.573 880.782 802.333C878.246 801.661 877.61 800.845 876.409 798.71C876.613 795.755 877.45 794.476 879.233 792.281Z"/>
	<path fill="white" transform="scale(0.0585938 0.0585938)" d="M1080.27 879.499C1087.68 879.24 1093.41 878.575 1100.04 882.449L1100.35 884.251C1100.02 884.673 1099.91 884.833 1099.49 885.249C1094.01 890.763 1082.91 889.843 1075.75 889.906C1071.74 889.974 1065.34 890.671 1061.59 889.109C1059.61 888.282 1059.67 887.868 1058.94 885.971C1059.08 885.021 1059.04 883.598 1059.66 882.869C1063.55 878.314 1074.61 879.808 1080.27 879.499Z"/>
	<path fill="white" transform="scale(0.0585938 0.0585938)" d="M1215.59 813.5C1217.36 813.455 1219.26 813.336 1221.01 813.567C1223.83 813.941 1224.61 814.956 1226.26 817.05C1226.67 819.962 1226.73 819.953 1225.06 822.36C1217.32 826.54 1205.42 824.976 1196.75 824.896C1194.12 824.957 1190.9 825.355 1188.87 823.379C1187.02 821.589 1186.61 820.938 1186.47 818.504C1186.91 817.886 1187.01 817.664 1187.53 817.184C1192.58 812.473 1208.69 813.607 1215.59 813.5Z"/>
	<path fill="white" transform="scale(0.0585938 0.0585938)" d="M910.467 870.569C919.587 870.061 929.159 869.192 938.265 869.797C942.072 870.05 945.103 870.321 947.682 873.289L947.35 875.478C945.134 878.086 944.302 878.77 941.055 879.847C932.585 880.643 915.775 883.053 907.881 880.193C905.425 879.303 905.253 878.784 904.275 876.548C904.51 875.582 904.736 874.424 905.225 873.554C906.459 871.358 908.243 871.189 910.467 870.569Z"/>
	<path fill="white" transform="scale(0.0585938 0.0585938)" d="M1143.98 848.503C1147.31 848.267 1152.93 847.267 1155.96 848.72C1158.66 850.01 1160.14 851.729 1161.14 854.436L1160.08 856.415C1153.2 861.307 1140.52 860.258 1132.25 860.566C1126.97 860.926 1122.36 861.896 1118.01 858.373C1117.4 855.893 1117.36 855.53 1118.2 853.132C1123.52 847.9 1136.75 848.9 1143.98 848.503Z"/>
	<path fill="white" transform="scale(0.0585938 0.0585938)" d="M1027.15 850.518C1034.51 850.168 1042.69 848.987 1049.65 851.926C1052.04 852.933 1052.96 853.783 1053.86 856.145C1053.56 856.681 1053.23 857.19 1052.79 857.626C1047.89 862.429 1037.17 861.948 1030.75 862.005C1025.75 862.162 1019.81 862.892 1014.91 861.934C1012.33 861.428 1008.65 860.223 1007.19 857.901C1006.79 857.249 1007.33 856.32 1007.53 855.614C1013.86 850.694 1019.45 850.889 1027.15 850.518Z"/>
	<path fill="white" transform="scale(0.0585938 0.0585938)" d="M1018.11 811.394C1029.24 810.628 1053.96 808.501 1063.58 812.598C1065.54 814.665 1065.55 814.577 1065.51 817.422C1063.77 820.144 1063.07 820.128 1060.12 821.088C1051.04 821.822 1020.09 823.371 1013.25 817.751L1013.69 814.526C1015.09 813.352 1016.58 812.385 1018.11 811.394Z"/>
	<path fill="white" transform="scale(0.0585938 0.0585938)" d="M926.311 828.483C933.727 828.243 940.266 828.6 947.349 831.16L948.168 835.242C939.616 841.369 928.217 840.716 918.179 841.013C912.986 841.103 906.816 841.876 901.755 841.16C899.402 840.827 897.776 839.998 896.296 838.113C896.205 835.886 896.173 834.887 897.886 833.162C903.096 827.914 919.084 828.909 926.311 828.483Z"/>
	<path fill="white" transform="scale(0.0585938 0.0585938)" d="M1355.99 480.116C1394.52 479.731 1429.59 491.722 1466.65 500.099C1508.26 511.79 1550.46 519.935 1593.13 526.514Q1623.59 531.241 1654.18 535.067C1685.18 539.015 1717.79 541.258 1746.4 554.807C1778.92 570.207 1804.17 597.541 1821.63 628.586C1841.61 664.125 1851.3 705.09 1852.25 745.744C1852.41 752.624 1853.15 762.606 1851.08 769.135C1850.71 770.303 1850.08 771.37 1849.4 772.374L1634.59 772.843L1576.62 772.922C1566.57 772.975 1556.16 773.606 1546.13 773.029C1543.37 772.87 1542.67 772.38 1540.45 770.84C1541.1 769.562 1541.32 768.407 1541.57 767.015C1540.86 765.388 1540.57 764.154 1539.13 763.041C1531.16 756.842 1510.77 760.717 1501.49 761.715C1506.09 759.677 1511.26 757.638 1515.14 754.415C1517.56 752.405 1520.68 748.753 1520.87 745.467C1521 743.1 1520.4 742.718 1518.96 741.015C1507.93 737.126 1489.13 749.201 1478.47 753.108C1482.22 749.959 1485.6 745.591 1487.59 741.094C1489.31 737.211 1489.62 733.34 1488.12 729.366C1487.4 728.7 1486.37 727.366 1485.42 727.227C1476.77 725.963 1468.78 742.56 1462.26 747.268C1462 747.451 1461.74 747.626 1461.49 747.806C1464.08 743.325 1464.49 739.002 1463.87 733.894C1463.44 730.359 1462.27 727.501 1459.4 725.282C1455.71 725.138 1453.17 727.412 1450.12 729.378C1445.09 725.214 1446.02 716.895 1438.88 711.488C1441.04 706.155 1442.55 639.305 1443.92 625.444C1444.9 615.47 1450.52 590.1 1448.37 582.048C1448.74 581.427 1449.07 580.798 1449.36 580.139C1452.05 574.069 1454.21 560.386 1451.9 554.136C1460.84 560.216 1467.23 573.98 1478.58 576.17C1480.07 575.699 1481.06 575.692 1481.97 574.339C1484.18 571.032 1483.83 565.871 1482.95 562.171C1480.84 553.268 1474.44 546.708 1466.89 542.098C1468.93 543.056 1468.52 542.516 1470.26 542.592C1475.7 542.827 1484.72 550.758 1493.18 549.977C1495.31 549.78 1495.38 549.689 1496.71 548.021C1496.69 547.274 1496.68 546.75 1496.41 546.04C1494.46 540.758 1489.93 535.722 1484.94 533.183C1476.53 528.905 1469.04 528.085 1460.07 530.935L1459.76 530.168C1473.33 516.886 1483.4 524.629 1490.04 516.931L1489.6 514.857C1485.26 509.912 1480.11 508.552 1473.97 506.996C1466.48 510.589 1460.58 514.298 1455.74 521.306C1454.02 523.796 1453.03 526.375 1450.97 528.667C1450.84 528.811 1450.71 528.95 1450.58 529.091C1450.1 522.612 1445.92 516.182 1441.45 511.679C1436.77 506.959 1430.78 503.395 1423.95 503.494C1418.03 503.581 1412.77 506.278 1408.72 510.506C1404.25 515.156 1397.16 527.844 1397.79 534.67C1398.03 537.234 1399.13 537.992 1400.92 539.56C1407.85 539.188 1413.92 528.577 1419.09 524.057C1422.24 521.307 1426.11 518.986 1430.45 519.499C1435.41 520.084 1437.97 523.261 1440.87 526.896C1437.58 527.086 1434.02 527.325 1430.86 528.293C1423.23 530.632 1416.67 537.761 1413.18 544.717C1409.52 552.027 1408.3 559.935 1410.95 567.769C1412.05 571.008 1413.13 572.834 1416.18 574.321C1426.25 570.116 1427.47 550.757 1436.61 543.745C1438.36 542.399 1440.66 541.521 1442.88 541.89C1445.11 542.258 1445.32 542.822 1446.62 544.513C1448.37 551.229 1444.83 567.707 1441.48 573.881C1443.19 581.35 1431.57 633.768 1429.74 646.915Q1427.2 665.227 1426.64 683.707C1426.29 692.531 1428.23 714.615 1423.83 721.273C1423.29 722.08 1422.08 722.381 1421.2 722.776C1417.87 722.117 1410.93 718.383 1408.08 720.356C1405.44 722.189 1404.33 725.595 1403.86 728.662C1402.63 736.592 1406.84 744.066 1404.18 751.81C1404.52 746.12 1398.4 739.039 1394.69 734.898C1392.32 732.249 1390.01 730.007 1386.4 729.358C1384.22 730.295 1383.34 730.757 1382.58 733.244C1380.77 739.109 1384.72 745.366 1382.64 751.804C1382.93 746.212 1378.26 738.61 1374.57 734.585C1372.89 732.753 1370.46 730.433 1367.83 730.481C1365.15 730.53 1362.37 730.991 1359.71 731.34C1355.68 725.782 1361.13 608.883 1357.72 590.164C1359.03 585.46 1357.76 580.502 1358.98 575.697C1362.63 575.753 1366.43 575.885 1369.97 574.854C1372.78 574.034 1375.12 572.296 1376.38 569.594C1377.26 567.733 1377.47 565.52 1376.73 563.58C1374.73 558.277 1368.52 554.626 1363.73 552.157C1363.83 551.763 1363.94 551.37 1364.03 550.972C1366.41 539.962 1361.59 488.613 1355.99 480.116Z"/>
	<path fill="white" transform="scale(0.0585938 0.0585938)" d="M185.014 768.934C185.274 720.055 192.071 671.616 216.882 628.588Q220.46 622.417 224.469 616.518Q228.477 610.618 232.897 605.019Q237.317 599.421 242.125 594.152Q246.933 588.883 252.105 583.971C273.936 562.86 298.647 543.975 322.762 525.57Q367.738 491.122 414.031 458.465C433.999 444.352 454.131 428.112 475.388 416.104C482.943 411.836 491.13 408.804 499.508 406.598C524.639 399.979 553.327 402.27 577.313 412.193C593.766 419 608.251 430.601 622.692 440.833C653.303 462.522 683.662 486.966 716.096 505.766C702.305 514.262 643.624 559.822 633.751 572.542C646.95 574.644 669.054 571.128 680.183 574.702L680.142 614.041C673.361 608.02 666.818 604.616 658.352 601.534C664.273 593.705 676.654 587.603 676.665 580.968C675.423 578.688 674.252 577.217 671.705 576.372C668.594 575.34 665.163 576.132 662.378 577.705C655.399 581.646 651.62 589.065 648.636 596.164C643.696 589.327 637.688 581.366 628.791 579.89C625.041 579.268 621.371 580.148 618.294 582.381C614.458 585.165 611.787 589.822 611.208 594.518C610.899 597.026 611.398 598.864 612.618 601.06C615.009 602.681 615.278 602.761 618.166 602.704Q621.427 600.698 624.606 598.566C629.609 601.399 633.51 604.134 637.495 608.351C630.31 619.29 625.825 627.863 628.698 641.447C629.09 643.3 629.831 644.866 630.808 646.479C631.988 647.137 632.451 647.718 633.825 647.329C636.971 646.437 638.564 643.482 639.919 640.767C641.889 636.817 643.733 632.352 646.258 628.735C647.389 634.797 646.501 642.18 646.298 648.39C645.225 681.186 640.869 713.306 636.456 745.775C635.613 742.474 634.903 738.622 633.406 735.566C632.311 733.332 629.915 731.006 627.484 730.343C625.475 729.794 623.853 730.053 622.064 731.199C617.306 734.247 616.194 741.314 615.187 746.402C609.855 734.784 607.865 723.665 595.049 718.241C596.204 678.674 598.687 640.341 603.653 601.059C605.871 580.692 610.003 557.931 606.635 537.565C612.155 541.532 617.063 546.252 622.069 550.833C626.214 555.188 630.568 559.217 635.033 563.238C639.096 560.75 643.46 558.342 646.326 554.431C648.722 551.163 650.123 547.185 649.4 543.123C648.374 537.351 643.855 532.652 639.221 529.409C628.535 521.932 618.246 521.893 606.011 524.022C606.144 523.251 606.63 522.411 606.943 521.686C630.75 504.144 634.8 517.109 647.768 510.753C648.991 509.063 649.57 508.616 649.366 506.43C649.083 503.401 646.567 500.53 644.374 498.596C640.09 494.818 634.329 493.21 628.689 493.721C619.516 494.552 612.777 500.06 607.119 506.882C605.294 509.484 604.071 512.547 600.924 513.312L598.842 510.557C594.785 502.741 589.767 495.163 582.096 490.49C576.261 486.936 569.622 485.599 562.938 487.258C558.963 488.244 554.297 490.568 552.268 494.323C550.953 496.756 551.511 498.334 552.231 500.772C556.947 506.305 569.848 505.398 576.996 507.571C578.906 508.898 583.113 511.082 583.661 513.2Q579.252 513.356 574.841 513.285C566.908 514.38 561.007 517.339 556.127 523.833C554.519 525.972 553.322 528.469 552.329 530.947C550.55 536.147 548.406 541.436 549.023 547.021L550.296 548.934C553.425 549.144 556.255 547.955 558.682 545.891C561.789 543.247 564.133 539.833 567.381 537.351C569.764 536.088 571.92 534.723 574.713 534.85C575.883 541.903 562.304 553.881 564.595 563.18C566.02 565.05 566.548 565.094 568.813 565.863C572.302 564.762 574.79 559.125 577.088 556.234C583.808 547.78 592.126 540.156 600.505 533.372C605.503 544.772 600.44 570.354 598.974 582.554C590.964 631.584 582.192 679.229 579.844 729.065C574.362 726.132 568.088 721.726 561.626 722.867C559.53 724.568 558.837 725.133 558.569 727.984C557.848 735.65 561.916 744.72 563.173 752.369C558.746 746.131 548.305 729.391 540.893 727.802C540.323 727.679 539.755 727.667 539.178 727.634C536.015 733.376 537.981 739.757 539.758 745.84Q540.052 746.845 540.365 747.844C536.694 743.491 530.347 734.17 524.23 733.367C522.269 733.11 520.821 733.671 519.412 734.989C517.217 737.044 516.683 740.565 516.049 743.367C515.008 747.961 514.436 752.889 511.567 756.771C504.925 765.76 481.398 768.255 470.866 770.224C455.947 767.859 438.368 769.265 423.124 769.01C388.742 768.434 354.284 767.601 319.897 768.135C302.938 767.495 285.789 768.034 268.812 768.079Q226.907 767.899 185.014 768.934Z"/>
	<path fill="white" transform="scale(0.0585938 0.0585938)" d="M824.141 270.149C844.582 268.9 865.676 269.949 886.175 269.961L1006.66 270.051L1133.34 270.023C1154.28 270.017 1175.82 269.017 1196.68 270.131C1202.1 270.42 1207.62 271.466 1212.48 273.957C1218.91 277.256 1225.39 284.429 1227.34 291.473C1231.09 305.091 1228.79 357.556 1228.77 374.84L1228.39 570.716L1228.41 692.026C1228.39 709.29 1229.16 726.729 1228.4 743.963C1228.19 748.674 1227.32 752.595 1224.87 756.688C1220.68 763.692 1214.21 768.602 1206.31 770.501C1203.51 771.761 1200.62 771.734 1197.6 771.817C1142.3 773.344 1086.57 771.574 1031.22 771.647L894.817 771.587C874.621 771.51 854.284 771.99 834.11 771.342C830.167 771.215 826.042 770.849 822.331 769.432C814.944 766.611 807.897 759.95 804.877 752.605C802.866 747.714 802.223 742.161 802.049 736.905C801.24 712.588 802.152 687.927 802.193 663.578L802.172 523.155L802.356 379.797C802.341 353.652 801.373 327.167 802.331 301.053C802.497 296.512 802.776 291.396 804.526 287.171C808.072 278.611 815.965 273.616 824.141 270.149Z"/>
	<path fill="#353D3D" transform="scale(0.0585938 0.0585938)" d="M1117.91 378.148C1115.89 377.922 1115.71 378.172 1114.37 376.523C1114.68 375.03 1114.95 373.565 1115.88 372.321C1117.24 370.527 1118.69 369.616 1120.96 369.317C1124.12 368.901 1133.61 368.668 1135.67 370.421C1135.44 372.814 1135.02 374.258 1132.97 375.802C1130.71 377.51 1128.26 376.726 1125.72 376.38C1122.26 376.178 1121.03 376.64 1117.91 378.148Z"/>
	<path fill="#353D3D" transform="scale(0.0585938 0.0585938)" d="M968.472 381.762C971.862 381.657 975.136 381.314 978.315 382.712C980.992 392.982 978.957 433.228 978.915 446.302C975.542 446.383 971.664 446.85 969.009 444.615C966.507 428.141 968.454 399.567 968.472 381.762Z"/>
	<path fill="#353D3D" transform="scale(0.0585938 0.0585938)" d="M1040.53 382.459C1043.98 382.117 1048.09 381.274 1051.42 382.36C1053.59 393.723 1052.69 427.421 1051.98 440.063C1051.8 443.408 1051.61 444.119 1049.08 446.368C1046.55 446.486 1044.61 446.521 1042.18 445.627C1037.3 430.082 1045.11 399.02 1040.53 382.459Z"/>
	<path fill="white" transform="scale(0.0585938 0.0585938)" d="M1116.22 592.485C1119.7 591.835 1125.08 590.66 1128.09 592.636C1129.33 600.198 1130.2 626.79 1126.71 632.435C1131.85 632.437 1137.12 631.678 1142.23 631.967C1145.02 632.124 1146.26 632.731 1148.02 634.801C1148.35 637.459 1147.33 639.211 1146.2 641.508C1141.35 643.95 1122.57 642.329 1116.18 642.299C1116.57 641.674 1116.89 641.132 1117.13 640.429C1119.2 634.357 1118.85 598.012 1116.22 592.485Z"/>
	<path fill="white" transform="scale(0.0585938 0.0585938)" d="M1025.8 591.469C1036.45 591.311 1048.35 590.014 1058.82 591.463C1062.25 591.938 1064.01 592.761 1066.06 595.531C1066.1 597.952 1065.29 599.014 1063.91 600.95C1059.64 602.583 1053.08 601.653 1048.46 601.587C1048.95 602.304 1049.41 603.077 1049.67 603.912C1051.33 609.43 1051.24 623.838 1048.39 628.677C1049.7 630.633 1050.1 632.665 1050.29 634.973C1050.52 637.883 1050.01 639.758 1048.09 641.989C1045.5 642.962 1044.02 643.285 1041.32 642.429C1037.4 641.188 1040.33 607.771 1037.56 601.723C1035.19 601.819 1032.74 601.992 1030.37 601.866C1027.71 601.725 1026.91 601.198 1025.17 599.374C1024.66 596.625 1025.27 594.159 1025.8 591.469Z"/>
	<path fill="#353D3D" transform="scale(0.0585938 0.0585938)" d="M929.718 381.929C932.963 381.898 936.656 381.444 939.569 383.005C941.645 400.081 940.168 418.742 940.144 436C945.292 435.945 953.284 434.505 957.731 436.959C959.796 440.164 959.227 442.506 959.225 446.269L929.81 446.28L929.718 381.929Z"/>
	<path fill="white" transform="scale(0.0585938 0.0585938)" d="M934.873 591.601C945.438 591.489 956.947 590.58 967.352 592.36C968.333 594.209 968.163 595.799 968.098 597.848C962.664 606.008 952.86 598.035 946.298 602.122C945.756 605.193 945.922 607.693 946.322 610.769C948.586 612.525 956.189 611.694 959.568 612.451C962.323 613.069 964.381 614.091 965.985 616.509C965.857 617.269 965.873 618.411 965.297 618.952C961.198 622.801 951.199 621.497 945.94 621.445C945.915 624.425 945.247 629.418 946.956 631.845C950.857 633.312 955.773 632.359 959.89 632.287C962.649 632.239 965.569 632.321 967.658 634.351C968.792 636.56 968.286 638.247 967.759 640.516C963.497 643.528 941.139 642.161 935.014 642.151L934.873 591.601Z"/>
	<path fill="#353D3D" transform="scale(0.0585938 0.0585938)" d="M899.502 381.112C901.339 381.078 903.226 381.046 905.052 381.271C909.669 381.839 913.209 384.864 915.907 388.466C918.148 391.459 919.358 394.186 918.868 397.963C917.647 399.897 916.852 401.085 914.457 401.687C912.189 402.257 910.323 402.274 908.413 400.974C908.325 397.998 908.242 395.672 907.009 392.906C905.026 391.252 903.871 390.277 901.197 390.072C900.275 390.606 899.074 391.051 898.51 391.963C894.958 397.711 894.315 426.596 896.632 433.384C897.431 435.724 898.395 436.261 900.423 437.301C903.114 437.22 904.846 436.24 906.74 434.422C908.959 432.291 908.406 427.872 908.397 425.01C911.047 424.92 913.45 424.974 916.085 425.361C917.106 426.182 917.937 427.006 918.444 428.244C919.566 430.979 919.391 433.903 918.277 436.609C916.525 440.868 912.864 444.264 908.642 446.016C903.476 448.16 897.448 447.562 892.49 445.115C889.53 443.654 887.888 439.714 887.011 436.721C884.071 426.697 883.551 396.711 888.738 387.739C891.236 383.417 894.904 382.301 899.502 381.112Z"/>
	<path fill="white" transform="scale(0.0585938 0.0585938)" d="M1081.76 591.496C1083.86 591.324 1086.05 591.061 1088.14 591.135C1090.17 591.207 1091.39 591.745 1092.64 593.327C1094.45 595.634 1108.58 639.091 1108.16 641.456C1095.37 647.009 1099.37 635.174 1090.01 632.806L1077.91 632.835C1078.25 634.689 1077.77 637.292 1076.86 638.959C1075.82 640.84 1073.67 642.25 1071.59 642.723C1069.18 643.27 1068.3 642.733 1066.44 641.449C1064.37 636.925 1079.17 600.032 1081.76 591.496Z"/>
	<path fill="white" transform="scale(0.0585938 0.0585938)" d="M1085.55 607.483C1087.92 609.305 1088.75 612.079 1089.66 614.908C1090.56 617.684 1090.74 620.137 1089.48 622.738L1085.9 623.106C1084.69 623.223 1083.88 622.747 1082.8 622.282C1081.96 617.88 1084.6 611.892 1085.55 607.483Z"/>
	<path fill="#353D3D" transform="scale(0.0585938 0.0585938)" d="M1076.41 381.491C1079.67 381.161 1083.33 381.205 1086.5 382.076C1089.95 383.022 1093.16 384.846 1094.92 388.094C1096.7 391.39 1099.1 397.919 1097.77 401.627C1097.47 402.466 1097.45 402.63 1096.6 402.987C1095.02 403.647 1092.17 403.24 1090.62 402.562C1087.21 401.063 1085.38 395.391 1083.96 392.194C1081.55 390.647 1081.37 390.832 1078.5 391.225C1076.13 393.061 1075.33 394.228 1074.68 397.195C1073.21 403.924 1072.05 429.009 1076.12 434.203C1077.74 436.277 1078.96 436.471 1081.38 436.926C1083.49 436.046 1084.59 435.794 1085.92 433.836C1087.73 431.184 1087.05 428.336 1086.35 425.453L1086.11 424.483C1088.12 423.548 1091.63 422.779 1093.81 423.162C1095.85 423.519 1096.24 424.568 1097.42 426.123C1098.11 429.07 1098.08 431.342 1097.14 434.236C1095.39 439.618 1091.29 444.385 1086.15 446.792C1082.84 448.345 1079.2 448.693 1075.76 447.336C1071.47 445.647 1067.09 441.217 1065.37 436.964C1062.65 430.201 1062.92 396.287 1065.84 389.857C1068 385.105 1071.71 383.174 1076.41 381.491Z"/>
	<path fill="white" transform="scale(0.0585938 0.0585938)" d="M1006.04 623.802C1006.08 616.875 1005.37 609.943 1005.47 603.013C1005.53 598.372 1005.89 594.691 1009.28 591.378C1011.99 591.313 1012.08 591.373 1014.22 593.032C1018.6 601.53 1016.23 631.333 1016.3 642.301C1013.18 642.301 1008.61 642.776 1005.7 641.867C1001.15 640.449 990.45 614.799 988.072 609.62C987.907 617.526 989.169 625.624 988.555 633.449C988.302 636.683 987.585 639.267 985.042 641.462C982.627 642.153 981.95 642.49 979.572 641.835C975.237 636.487 977.224 600.26 977.126 591.77C979.566 591.593 983.022 591.027 985.36 591.728C993.255 594.093 1002.04 616.073 1006.04 623.802Z"/>
	<path fill="#353D3D" transform="scale(0.0585938 0.0585938)" d="M1117.17 382.488C1121.29 381.295 1126.14 381.86 1130.41 381.953C1134.71 387.072 1143.79 439.616 1143.44 446.443L1132.64 446.506C1133.36 441.596 1132.67 438.876 1130.2 434.677C1127.2 432.961 1120.16 433.942 1116.61 433.981C1117.36 435.783 1117.34 438.794 1117.02 440.714C1116.62 443.039 1115.13 444.838 1113.03 445.874C1110.85 446.956 1108.71 446.859 1106.5 446.038C1102.74 440.68 1119 393.204 1117.17 382.488Z"/>
	<path fill="white" transform="scale(0.0585938 0.0585938)" d="M1123.72 397.492L1125.44 398.651C1126.98 405.029 1131.29 417.872 1128.6 424.184L1125.14 424.695C1123.07 424.669 1122.28 424.939 1120.57 423.678C1118.73 415.773 1123.62 406.384 1123.72 398.255L1123.72 397.492Z"/>
	<path fill="#353D3D" transform="scale(0.0585938 0.0585938)" d="M992.287 381.968C995.702 381.818 999.111 381.389 1002.33 382.767C1009.47 394.123 1013.38 409.94 1017.96 422.57C1018.03 411.951 1015.04 394.315 1019.35 384.746C1020.36 382.5 1021.26 381.704 1023.5 380.847L1025.58 382.364C1027.16 385.155 1027.88 387.804 1028.18 390.996C1028.91 398.613 1029.07 434.092 1028.24 441.362C1027.91 444.167 1027.19 444.514 1025.13 446.225C1023.28 446.293 1020.83 446.603 1019.08 445.975C1015.31 444.618 1004.76 411.614 1002.21 405.685C1002.02 415.392 1002.87 425.14 1002.51 434.836C1002.34 439.4 1002.19 442.848 998.754 446.034C996.343 446.006 994.922 446.282 992.799 444.945C990.217 431.471 992.237 397.498 992.287 381.968Z"/>
	<path fill="white" transform="scale(0.0585938 0.0585938)" d="M886.023 591.303C895.012 591.228 907.851 589.743 915.82 594.576C920.248 597.261 922.661 601.73 923.761 606.681C926.017 616.831 924.956 627.757 919.361 636.577C909.957 644.19 897.222 642.288 885.853 642.102L886.023 591.303Z"/>
	<path fill="white" transform="scale(0.0585938 0.0585938)" d="M896.909 601.498C900.047 601.443 904.063 601.16 907.013 602.362C909.981 603.572 912.44 606.503 913.566 609.457C915.907 615.6 913.942 624.259 911.34 630.017C906.782 632.61 901.893 632.48 896.819 632.602L896.909 601.498Z"/>
	<path fill="#353D3D" transform="scale(0.0585938 0.0585938)" d="M1049.41 470.481C1057.14 469.563 1065.44 470.085 1073.24 470.037C1073.89 470.996 1074.33 471.97 1074.48 473.133C1076.04 485.751 1074.73 500.273 1074.71 513.088C1074.68 528.651 1075.99 545.723 1074.27 561.102C1074.08 562.835 1073.44 564.128 1072.41 565.511C1065.3 567.073 1055.82 565.904 1048.44 565.869C1048.52 565.709 1048.6 565.547 1048.68 565.388C1051.4 560.206 1051.14 479.692 1049.41 470.481Z"/>
	<path fill="#353D3D" transform="scale(0.0585938 0.0585938)" d="M1122.3 468.497L1123.84 468.392C1133.69 467.757 1151.42 467.937 1159.14 474.755C1159.35 475.511 1159.53 476.163 1159.49 476.957C1159.35 480.573 1156.24 488.874 1153.56 491.357C1148.32 488.101 1141.14 486.584 1135.01 486.083C1130.5 485.715 1122.98 485.843 1119.51 489.257C1117.63 491.112 1117.07 493.166 1116.92 495.72C1119.79 506.453 1147.5 510.723 1157.09 519.137C1161.94 523.384 1164.98 528.795 1165.37 535.277C1165.8 542.433 1162.99 551.356 1158.18 556.726C1150.19 565.631 1137.48 567.036 1126.25 567.527C1113.7 567.007 1102.84 564.02 1090.86 560.609C1091.76 559.888 1092.49 559.087 1093.06 558.073C1095.29 554.131 1098.49 546.478 1097.27 541.978C1107.63 545.47 1118.21 551.426 1129.56 549.752C1133.15 549.223 1137.57 547.668 1139.64 544.464C1140.76 542.728 1141.13 540.255 1140.62 538.258C1138.32 529.317 1114.05 525.15 1106 520.318C1099.91 516.664 1094.73 511.573 1093.1 504.455C1091.46 497.233 1093.66 488.016 1097.62 481.858C1103.16 473.261 1112.9 470.565 1122.3 468.497Z"/>
	<path fill="#353D3D" transform="scale(0.0585938 0.0585938)" d="M967.911 469.956L1030.39 469.905C1030.88 470.674 1031.21 471.246 1031.48 472.122C1032.82 476.561 1032.54 483.98 1030.2 488.002L991.909 488.02L991.89 507.425L1027.03 507.485C1027.37 508.018 1027.59 508.295 1027.81 508.856C1029.65 513.412 1028.8 521.636 1026.7 525.957C1020.5 525.858 995.49 524.447 991.773 527.134L991.741 547.766L1030.31 547.749C1030.81 548.555 1031.16 549.163 1031.45 550.078C1032.79 554.467 1032.57 561.948 1030.19 565.907L968.047 565.813L967.911 469.956Z"/>
	<path fill="#353D3D" transform="scale(0.0585938 0.0585938)" d="M927.515 469.881L955.473 469.86C942.84 486.234 928.226 501.484 915.105 517.544C922.893 526.153 930.124 535.476 937.569 544.397C943.454 551.644 949.643 558.685 955.672 565.815L923.888 565.912C913.603 551.732 902.769 537.926 892.119 524.018L892.074 565.669L867.131 565.737L867.322 469.949L892.126 469.883L892.12 512.796C904.247 498.826 915.436 483.948 927.515 469.881Z"/>
</svg>
